<?xml version="1.0" standalone="no"?>
<!DOCTYPE svg PUBLIC "-//W3C//DTD SVG 20010904//EN"
 "http://www.w3.org/TR/2001/REC-SVG-20010904/DTD/svg10.dtd">
<svg version="1.0" xmlns="http://www.w3.org/2000/svg"
 width="171.000000pt" height="256.000000pt" viewBox="0 0 171.000000 256.000000"
 preserveAspectRatio="xMidYMid meet">

<g transform="translate(0.000000,256.000000) scale(0.100000,-0.100000)"
fill="#000000" stroke="none">
<path d="M817 1992 c-23 -26 -22 -69 3 -84 12 -8 20 -24 20 -40 0 -29 -1 -30
-84 -43 -86 -14 -188 -89 -231 -169 -11 -21 -27 -36 -37 -36 -10 0 -27 -9 -38
-20 -17 -17 -20 -33 -20 -98 0 -83 14 -112 54 -112 9 0 25 -15 34 -32 9 -18
38 -55 65 -82 l47 -49 -40 -34 c-44 -38 -64 -70 -73 -118 -9 -49 4 -59 85 -65
l73 -5 3 -47 c2 -27 5 -48 8 -48 3 0 40 23 83 50 l78 50 161 0 c135 0 163 3
177 16 31 31 -1 112 -66 168 l-42 35 33 28 c18 15 48 51 67 80 21 34 41 53 53
53 32 0 50 39 50 107 0 81 -12 112 -47 119 -20 4 -37 20 -58 56 -50 84 -146
144 -249 157 -47 5 -51 8 -54 35 -3 20 3 32 17 43 41 28 16 103 -36 103 -11 0
-27 -8 -36 -18z m155 -254 c57 -17 133 -88 154 -145 37 -96 14 -204 -58 -268
-63 -57 -99 -69 -213 -69 -84 0 -108 4 -147 23 -54 26 -103 77 -126 130 -20
48 -19 136 3 189 20 49 99 124 147 139 46 15 192 16 240 1z"/>
<path d="M706 1565 c-20 -21 -5 -55 25 -55 24 0 36 27 22 48 -14 23 -29 25
-47 7z"/>
<path d="M962 1568 c-17 -17 -15 -45 4 -52 25 -10 33 -7 44 13 7 15 6 23 -6
35 -19 19 -26 20 -42 4z"/>
<path d="M760 1435 c0 -20 52 -45 95 -45 43 0 95 25 95 45 0 19 -19 19 -44 0
-11 -8 -34 -15 -51 -15 -17 0 -40 7 -51 15 -25 19 -44 19 -44 0z"/>
<path d="M161 784 c-27 -35 -27 -93 0 -128 26 -33 88 -37 119 -6 40 40 18 54
-29 19 -23 -17 -32 -19 -50 -10 -40 22 -40 100 0 122 18 9 27 7 50 -10 47 -35
69 -21 29 19 -31 31 -93 27 -119 -6z"/>
<path d="M1090 780 c0 -28 -2 -29 -30 -23 -42 8 -70 -19 -70 -67 0 -40 17 -61
47 -61 10 0 33 1 51 1 l32 1 0 90 c0 72 -3 89 -15 89 -10 0 -15 -10 -15 -30z
m-5 -90 c0 -32 -2 -35 -30 -35 -24 0 -31 5 -33 23 -6 38 5 54 35 50 25 -3 28
-7 28 -38z"/>
<path d="M1150 795 c0 -8 7 -15 15 -15 8 0 15 7 15 15 0 8 -7 15 -15 15 -8 0
-15 -7 -15 -15z"/>
<path d="M1363 720 c-24 -69 -28 -90 -18 -90 8 0 19 9 25 20 8 15 21 20 50 20
30 0 40 -5 45 -20 3 -11 13 -20 22 -20 8 0 13 6 11 13 -58 162 -61 167 -82
167 -17 0 -26 -15 -53 -90z m73 2 c6 -30 4 -32 -20 -32 -29 0 -31 4 -15 49 13
37 26 31 35 -17z"/>
<path d="M1530 720 c0 -73 3 -90 15 -90 12 0 15 17 15 90 0 73 -3 90 -15 90
-12 0 -15 -17 -15 -90z"/>
<path d="M650 775 c0 -9 -7 -18 -15 -21 -19 -8 -20 -24 -1 -24 11 0 16 -14 18
-47 3 -44 5 -48 31 -51 29 -4 37 12 12 22 -9 3 -15 19 -15 41 0 24 4 35 15 35
8 0 15 4 15 9 0 5 -7 11 -15 15 -8 3 -15 12 -15 21 0 8 -7 15 -15 15 -8 0 -15
-7 -15 -15z"/>
<path d="M349 742 c-25 -21 -30 -71 -9 -96 18 -22 83 -21 103 2 25 28 21 67
-9 91 -33 26 -55 26 -85 3z m77 -37 c8 -31 -12 -57 -40 -53 -13 2 -22 12 -24
26 -5 36 5 52 32 52 19 0 27 -7 32 -25z"/>
<path d="M518 753 c-27 -4 -28 -7 -28 -64 0 -45 3 -59 14 -59 11 0 16 14 18
47 2 37 7 49 22 51 24 5 36 -14 36 -60 0 -21 5 -38 10 -38 14 0 12 104 -2 118
-12 12 -20 13 -70 5z"/>
<path d="M795 750 c-3 -6 -17 -7 -31 -4 -23 6 -24 5 -24 -55 0 -46 3 -61 14
-61 10 0 16 14 18 43 2 32 8 44 26 52 12 5 22 15 22 22 0 15 -16 17 -25 3z"/>
<path d="M864 746 c-24 -18 -10 -34 16 -18 22 14 50 6 50 -14 0 -9 -12 -14
-34 -14 -37 0 -60 -19 -54 -47 3 -15 14 -18 63 -20 l60 -2 -3 50 c-5 69 -50
99 -98 65z m62 -68 c9 -14 -23 -38 -42 -31 -17 6 -18 30 -1 36 21 9 36 7 43
-5z"/>
<path d="M1150 690 c0 -47 3 -60 15 -60 12 0 15 13 15 60 0 47 -3 60 -15 60
-12 0 -15 -13 -15 -60z"/>
<path d="M1210 741 c0 -6 14 -11 30 -13 l31 -3 -30 -35 c-43 -50 -40 -60 19
-60 28 0 50 5 50 10 0 6 -13 10 -30 10 -16 0 -30 3 -30 6 0 4 14 22 30 41 17
18 30 38 30 43 0 6 -22 10 -50 10 -27 0 -50 -4 -50 -9z"/>
</g>
</svg>
